<svg width="322" height="322" viewBox="0 0 322 322" fill="none" xmlns="http://www.w3.org/2000/svg">
<path d="M143.73 0.00886536C157.34 0.304762 172.772 8.55931 176.596 25.0675C181.039 23.5968 185.698 23.1453 190.139 23.5089C205.71 24.7841 222.769 36.8324 222.984 57.7305C229.75 55.5001 236.878 55.6087 243.349 57.4718C258.394 61.8039 271.259 76.125 269.967 95.8507C269.962 95.9239 269.957 95.9973 269.95 96.0704L264.098 164.392C266.876 163.977 269.801 163.801 272.848 163.952C283.827 164.497 295.147 169.232 305.769 179.854C314.514 188.599 319.33 197.872 321.024 207.168C322.701 216.38 321.158 224.755 318.6 231.564C316.06 238.322 312.437 243.781 309.544 247.486C308.08 249.362 306.754 250.852 305.764 251.9C305.267 252.426 304.851 252.846 304.539 253.152C304.383 253.305 304.253 253.431 304.151 253.527L247.769 309.91C243.473 314.206 236.508 314.206 232.212 309.91L214.472 292.17C209.406 294.597 207.151 298.136 205.941 301.177C205.06 303.389 204.681 305.553 204.534 307.186C204.463 307.985 204.45 308.609 204.453 308.983C204.455 309.169 204.46 309.288 204.462 309.332C204.462 309.334 204.462 309.336 204.462 309.338C204.461 309.329 204.461 309.314 204.459 309.295C204.458 309.285 204.457 309.273 204.456 309.261C204.456 309.255 204.455 309.248 204.454 309.241L204.485 309.795C204.668 315.607 200.264 320.606 194.402 321.094C188.348 321.597 183.032 317.097 182.528 311.043L193.49 310.131C182.529 311.043 182.528 311.037 182.527 311.031C182.527 311.029 182.527 311.023 182.526 311.019C182.526 311.01 182.525 311.001 182.525 310.992C182.523 310.974 182.521 310.954 182.52 310.933C182.516 310.889 182.513 310.839 182.509 310.783C182.502 310.672 182.494 310.535 182.486 310.376C182.471 310.057 182.458 309.644 182.454 309.147C182.447 308.155 182.479 306.815 182.622 305.22C182.905 302.064 183.64 297.717 185.499 293.044C187.85 287.136 191.917 280.991 198.486 276.185L175.712 253.41C175.603 253.301 175.497 253.19 175.393 253.076L183.49 245.632L176.402 252.144C175.433 253.032 175.389 253.07 175.386 253.069C175.384 253.068 175.381 253.063 175.378 253.061C175.373 253.055 175.367 253.049 175.36 253.042C175.348 253.029 175.334 253.012 175.318 252.995C175.287 252.96 175.249 252.917 175.204 252.867C175.114 252.767 174.998 252.636 174.859 252.475C174.58 252.152 174.205 251.709 173.758 251.154C172.865 250.048 171.668 248.482 170.346 246.526C167.73 242.658 164.474 237.043 162.192 230.271C159.904 223.484 158.485 215.203 159.985 206.264C161.51 197.18 165.936 188.13 174.212 179.854C182.488 171.577 191.539 167.152 200.623 165.627C209.562 164.127 217.843 165.546 224.629 167.833C230.619 169.852 235.704 172.633 239.476 175.059C240.026 174.652 240.605 174.238 241.21 173.819L248.018 94.3389C248.53 86.0332 243.408 80.3822 237.262 78.6124C234.195 77.7295 231.218 77.9403 228.798 79.044C226.834 79.94 224.689 81.6679 222.99 84.9825V135.631C222.99 141.706 218.065 146.631 211.99 146.631C205.915 146.631 200.99 141.706 200.99 135.631V58.1319C200.99 51.0719 195.422 46.0153 188.343 45.4356C185.011 45.1628 182.396 46.0705 180.761 47.4727C179.328 48.7016 177.49 51.2885 177.49 56.9747V135.631C177.49 141.706 172.565 146.631 166.49 146.631C160.415 146.631 155.49 141.706 155.49 135.631V33.1309C155.49 26.5234 150.58 22.1633 143.251 22.004C139.731 21.9276 136.729 23.0035 134.791 24.6466C133.099 26.0816 131.49 28.53 131.49 33.1309V135.631C131.49 141.706 126.565 146.631 120.49 146.631C114.415 146.631 109.49 141.706 109.49 135.631V66.3565L109.486 65.9805C109.319 58.1463 103.913 54.6343 98.7697 54.8819C96.1544 55.0079 93.4842 56.1356 91.3507 58.6641C89.2027 61.2101 86.9904 65.9385 86.9904 74.1319V162.42C87.0253 162.44 87.0607 162.461 87.0958 162.482C90.8977 164.699 95.973 168.11 100.801 172.824C110.592 182.386 120.011 198.192 114.092 219.567C112.47 225.422 106.41 228.854 100.555 227.232C94.7002 225.611 91.2685 219.55 92.8898 213.695C95.9702 202.571 91.6385 194.627 85.4298 188.564C82.2581 185.466 78.7713 183.095 76.0109 181.484C74.6504 180.691 73.5161 180.111 72.757 179.744C72.3788 179.562 72.0969 179.434 71.9318 179.36C71.8502 179.324 71.7972 179.301 71.7755 179.292C71.7737 179.291 71.7721 179.29 71.7706 179.289C71.7808 179.293 71.7907 179.299 71.8009 179.303C71.7995 179.302 71.7961 179.3 71.7941 179.299C71.7897 179.297 71.7857 179.295 71.7823 179.294C71.7757 179.291 71.7705 179.289 71.7677 179.288C71.7684 179.288 71.7696 179.289 71.7706 179.289C69.7382 178.445 68.0046 177.01 66.796 175.17L44.796 141.67C44.698 141.521 44.6036 141.369 44.5128 141.215L44.2628 140.768C44.2683 140.778 44.274 140.788 44.2784 140.796C44.2852 140.809 44.2899 140.82 44.2941 140.827C44.2735 140.791 44.2241 140.704 44.1447 140.575C43.9725 140.297 43.6748 139.842 43.2589 139.293C42.397 138.155 41.1912 136.829 39.7247 135.767C38.2954 134.731 36.7927 134.066 35.1671 133.87C33.6196 133.684 31.249 133.831 27.837 135.506C24.8796 136.957 23.6336 138.606 22.9757 140.011C22.2221 141.62 21.8857 143.718 22.0343 146.263C22.1821 148.793 22.7827 151.27 23.4054 153.201C23.7079 154.139 23.9943 154.883 24.1906 155.361C24.2414 155.485 24.2871 155.59 24.3234 155.674L50.0665 201.219C51.4118 203.599 51.8195 206.388 51.2228 209.043L51.0968 209.547C51.0991 209.539 51.1015 209.53 51.1036 209.523C51.1078 209.507 51.1118 209.493 51.1154 209.48C51.1223 209.453 51.1285 209.432 51.1329 209.414C51.1419 209.379 51.1455 209.361 51.1456 209.36C51.1456 209.36 51.1298 209.429 51.1046 209.563C51.054 209.831 50.9662 210.365 50.8937 211.144C50.7488 212.699 50.6651 215.244 51.0714 218.635C51.8768 225.355 54.6453 235.723 63.1564 248.55C71.5666 261.225 80.5827 268.052 87.1622 271.696C90.4769 273.532 93.2216 274.587 95.0226 275.164C95.9227 275.453 96.585 275.621 96.9611 275.708C97.1486 275.751 97.2648 275.774 97.3029 275.781C97.3215 275.785 97.3207 275.785 97.2999 275.781L97.2179 275.768C97.2121 275.767 97.2057 275.766 97.1993 275.765C101.234 276.399 104.586 279.218 105.903 283.086L113.903 306.586C115.861 312.337 112.786 318.586 107.035 320.544C101.284 322.502 95.035 319.427 93.0773 313.676L86.9425 295.655C84.0988 294.663 80.5245 293.169 76.5021 290.941C67.0592 285.711 55.3241 276.537 44.8243 260.713C34.4256 245.041 30.4447 231.408 29.2277 221.253C28.6228 216.206 28.7098 212.095 28.9884 209.104C29.0008 208.97 29.0163 208.839 29.0294 208.71L4.91418 166.044C4.79518 165.833 4.68312 165.618 4.57825 165.4L14.4904 160.631C4.64134 165.37 4.57674 165.397 4.57434 165.393C4.57359 165.391 4.57185 165.387 4.57043 165.384C4.56754 165.378 4.56392 165.371 4.56067 165.364C4.55408 165.351 4.54721 165.334 4.53918 165.317C4.52308 165.283 4.50318 165.243 4.48157 165.196C4.43832 165.103 4.38466 164.985 4.32141 164.844C4.1948 164.561 4.0295 164.183 3.83899 163.719C3.45907 162.794 2.96895 161.51 2.46692 159.953C1.48027 156.894 0.361133 152.507 0.0714111 147.545C-0.217404 142.598 0.291017 136.575 3.05286 130.679C5.91055 124.578 10.8523 119.336 18.1447 115.757C24.9821 112.401 31.6114 111.283 37.798 112.028C43.9064 112.764 48.873 115.228 52.631 117.95C56.3516 120.645 59.0525 123.706 60.7999 126.015C61.6884 127.188 62.3725 128.223 62.8546 129.002C63.0783 129.364 63.2605 129.675 63.4025 129.924L64.9904 132.342V74.1319C64.9904 61.9431 68.3407 51.8196 74.5363 44.4766C80.7464 37.1164 89.2024 33.3171 97.712 32.9073C101.725 32.7141 105.723 33.2809 109.49 34.5411V33.1309C109.491 22.4828 113.632 13.7436 120.565 7.86629C127.251 2.19705 135.75 -0.164542 143.73 0.00886536ZM271.757 185.925C266.513 185.665 261.463 187.372 257.068 189.825C257.058 189.831 257.048 189.837 257.037 189.843C256.919 189.909 256.801 189.976 256.684 190.043C253.944 191.614 251.701 193.336 250.153 194.662C249.388 195.318 248.814 195.859 248.458 196.207C248.281 196.381 248.158 196.505 248.095 196.57C248.092 196.574 248.087 196.576 248.084 196.579C246.11 198.725 243.366 200 240.452 200.122C237.543 200.244 234.705 199.208 232.559 197.241L232.567 197.249C232.544 197.229 232.502 197.191 232.439 197.137C232.294 197.011 232.043 196.8 231.697 196.521C231.003 195.96 229.936 195.141 228.564 194.213C225.776 192.329 221.954 190.148 217.602 188.681C213.263 187.218 208.731 186.574 204.264 187.323C199.942 188.049 194.992 190.187 189.769 195.41C184.546 200.634 182.408 205.584 181.683 209.905C180.933 214.372 181.577 218.905 183.039 223.243C184.506 227.596 186.688 231.418 188.572 234.205C189.5 235.577 190.319 236.644 190.879 237.339C191.158 237.685 191.37 237.935 191.495 238.08L239.99 286.575L288.712 237.854L289.006 237.57L289.005 237.572C289.019 237.559 289.06 237.52 289.123 237.457C289.251 237.331 289.472 237.11 289.766 236.799C290.356 236.174 291.221 235.206 292.202 233.949C294.2 231.39 296.483 227.879 298.006 223.825C299.51 219.821 300.186 215.539 299.379 211.11C298.588 206.766 296.216 201.415 290.212 195.41C283.022 188.221 276.711 186.171 271.757 185.925ZM248.056 196.612C248.05 196.618 248.047 196.621 248.046 196.622C248.047 196.621 248.052 196.615 248.062 196.605C248.059 196.607 248.058 196.61 248.056 196.612ZM248.078 196.588L248.062 196.605C248.067 196.599 248.073 196.592 248.08 196.584C248.079 196.585 248.079 196.587 248.078 196.588ZM248.083 196.582L248.08 196.584C248.081 196.583 248.082 196.581 248.083 196.58V196.582Z" fill="white"/>
</svg>
