<?xml version="1.0" standalone="no"?>
<!DOCTYPE svg PUBLIC "-//W3C//DTD SVG 20010904//EN"
 "http://www.w3.org/TR/2001/REC-SVG-20010904/DTD/svg10.dtd">
<svg version="1.0" xmlns="http://www.w3.org/2000/svg"
 width="300.000000pt" height="300.000000pt" viewBox="0 0 300.000000 300.000000"
 preserveAspectRatio="xMidYMid meet">
<metadata>
Created by potrace 1.10, written by Peter Selinger 2001-2011
</metadata>
<g transform="translate(0.000000,300.000000) scale(0.100000,-0.100000)"
fill="#000000" stroke="none">
<path d="M1300 2235 c-208 -57 -375 -233 -426 -450 -22 -93 -14 -253 16 -350
78 -250 261 -430 501 -494 89 -23 187 -34 232 -26 l33 7 18 111 c10 62 20 122
23 135 4 16 1 22 -11 22 -25 0 -88 35 -114 62 -70 75 -29 198 65 198 19 0 48
-7 64 -16 17 -8 33 -14 35 -11 3 2 9 31 15 64 10 56 9 64 -14 109 -34 67 -44
108 -68 267 -22 152 -44 224 -89 285 -60 84 -169 117 -280 87z m143 -37 c60
-18 120 -81 146 -153 13 -33 29 -109 37 -170 18 -134 37 -212 71 -287 17 -37
23 -66 19 -82 -6 -23 -9 -25 -54 -20 -90 10 -162 -55 -162 -146 0 -59 27 -101
99 -155 l53 -39 -6 -56 c-11 -91 -24 -127 -48 -133 -35 -10 -174 12 -247 38
-100 36 -156 71 -232 143 -153 144 -232 350 -216 563 18 233 199 449 416 495
73 16 77 16 124 2z"/>
<path d="M1223 2078 c-49 -35 -76 -91 -70 -145 6 -57 32 -92 89 -121 63 -32
109 -23 165 32 56 56 65 103 32 165 -46 88 -145 119 -216 69z m149 -38 c56
-43 61 -125 10 -173 -76 -72 -192 -23 -192 83 0 34 6 48 34 76 29 29 41 34 79
34 29 0 53 -7 69 -20z"/>
<path d="M1070 1762 c-82 -37 -123 -138 -85 -211 19 -38 68 -78 104 -86 45
-10 103 11 141 49 28 30 34 45 38 91 4 48 1 61 -22 96 -38 57 -120 86 -176 61z
m116 -51 c88 -53 52 -194 -53 -208 -29 -4 -46 1 -73 19 -125 85 -3 267 126
189z"/>
<path d="M1245 1433 c-33 -8 -72 -41 -96 -79 -40 -65 -14 -150 61 -201 124
-85 282 79 202 209 -36 57 -104 86 -167 71z m90 -49 c34 -16 65 -65 65 -104 0
-60 -57 -110 -126 -110 -51 0 -104 53 -104 104 0 97 81 150 165 110z"/>
<path d="M1970 2204 c0 -46 -12 -67 -71 -131 -38 -41 -49 -59 -49 -85 0 -49
10 -58 84 -75 67 -15 68 -15 93 9 36 33 63 91 63 136 0 48 -43 136 -80 162
-38 27 -40 26 -40 -16z m77 -112 c8 -33 -5 -86 -28 -116 -16 -20 -29 -26 -59
-26 -36 0 -70 20 -70 41 0 5 15 26 33 46 18 21 46 56 61 77 28 37 30 38 43 20
8 -10 16 -29 20 -42z"/>
<path d="M1826 1880 c-7 -38 -1 -50 25 -50 11 0 49 -7 85 -16 36 -9 67 -15 69
-12 3 2 8 18 11 35 l6 31 -73 16 c-41 9 -83 19 -95 22 -18 5 -22 0 -28 -26z"/>
<path d="M1811 1678 c-28 -165 -70 -412 -116 -674 -38 -219 -40 -240 -24 -250
20 -12 37 20 64 121 25 97 55 204 184 667 34 120 61 222 61 226 0 5 -24 14
-52 21 -29 6 -62 14 -74 17 -20 5 -22 -2 -43 -128z m102 70 c15 -12 12 -30
-38 -213 -113 -415 -122 -402 -39 60 29 165 29 165 47 165 7 0 21 -6 30 -12z"/>
<path d="M1912 1422 c-15 -51 -15 -62 2 -62 29 0 59 -36 58 -70 -1 -41 -34
-76 -87 -94 -37 -13 -38 -14 -70 -127 -18 -63 -31 -116 -29 -118 2 -2 34 11
71 30 89 44 209 162 248 242 71 146 36 214 -121 232 l-60 7 -12 -40z m148 -27
c49 -26 51 -65 4 -160 -28 -58 -79 -116 -147 -168 -56 -43 -67 -45 -66 -14 2
51 26 92 70 117 84 50 111 124 66 184 -42 55 -42 56 3 56 23 0 54 -7 70 -15z"/>
</g>
</svg>
